# xmcd
#
# Track frame offsets: 
#        150
#        21708
#        48158
#        70905
#
# Disc length: 1160 seconds
#
# Revision: 1
# Processed by: cddbd v1.5.2PL0 Copyright (c) Steve Scherf et al.
# Submitted via: ExactAudioCopy v1.1
#
DISCID=33048604
DTITLE=Enter Shikari - Juggernauts (Maxi)
DYEAR=2009
DGENRE=Hardcore
TTITLE0=Juggernauts
TTITLE1=All Eyes On The Saint
TTITLE2=Juggernauts [Nero Remix]
TTITLE3=Juggernauts [Blue Bear's True Tiger Remix Edit]
EXTD=
EXTT0=
EXTT1=
EXTT2=
EXTT3=
PLAYORDER=
